<svg xmlns="http://www.w3.org/2000/svg" xmlns:svg="http://www.w3.org/2000/svg" id="svg2" width="85.333" height="204.36" version="1.1"><metadata id="metadata12"/><g id="g6" transform="translate(-70,150.68577)"><path id="path8" stroke-miterlimit="10" d="m 94,0 32,20 -32,20 z m -24,20 24,0 m 32,-20 0,40 m 0,-20 24,0" pointer-events="none" transform="matrix(-1,0,0,-1,220,40)" style="fill:#fff;stroke:#000;stroke-miterlimit:10"/></g><g id="g4163" transform="translate(-63.285401,-464.01272)"><path id="rect4142" d="m 99.964968,464.43958 c -10.95501,0 -19.773918,8.81891 -19.773918,19.77392 l 0,22.907 39.5495,0 0,-22.907 c 0,-10.95501 -8.82056,-19.77392 -19.775582,-19.77392 z" style="fill:red;fill-opacity:1;stroke:#000;stroke-width:.8537184;stroke-miterlimit:4;stroke-dasharray:none;stroke-opacity:1"/><rect id="rect4151" width="46.058" height="9.865" x="80.27" y="504.026" style="fill:red;fill-opacity:1;stroke:#000;stroke-width:.95665324;stroke-miterlimit:4;stroke-dasharray:none;stroke-opacity:1"/><path id="path4159" d="m 90,514.09448 0,70" style="fill:none;fill-rule:evenodd;stroke:#000;stroke-width:4;stroke-linecap:butt;stroke-linejoin:miter;stroke-miterlimit:4;stroke-dasharray:none;stroke-opacity:1"/><path id="path4161" d="m 110,514.09448 0,90" style="fill:none;fill-rule:evenodd;stroke:#000;stroke-width:4;stroke-linecap:butt;stroke-linejoin:miter;stroke-miterlimit:4;stroke-dasharray:none;stroke-opacity:1"/></g><text style="font-style:normal;font-variant:normal;font-weight:400;font-stretch:normal;font-size:22.5px;line-height:125%;font-family:Arial;-inkscape-font-specification:'Arial, Normal';text-align:center;letter-spacing:0;word-spacing:0;writing-mode:lr-tb;text-anchor:middle;fill:#000;fill-opacity:1;stroke:none;stroke-width:1px;stroke-linecap:butt;stroke-linejoin:miter;stroke-opacity:1" id="text4169" x="5.463" y="157.983" xml:space="preserve"><tspan id="tspan4171" x="5.463" y="157.983">-</tspan></text><text style="font-style:normal;font-variant:normal;font-weight:400;font-stretch:normal;font-size:22.5px;line-height:125%;font-family:Arial;-inkscape-font-specification:'Arial, Normal';text-align:center;letter-spacing:0;word-spacing:0;writing-mode:lr-tb;text-anchor:middle;fill:#000;fill-opacity:1;stroke:none;stroke-width:1px;stroke-linecap:butt;stroke-linejoin:miter;stroke-opacity:1" id="text4169-4" x="69.463" y="160.082" xml:space="preserve"><tspan id="tspan4191" x="69.463" y="160.082">+</tspan></text></svg>