<svg id="svg3464" xmlns="http://www.w3.org/2000/svg" width="500" height="200" viewBox="0 0 500 200">
  <title>logo_mixteen_alt_baseline</title>
  <rect width="500" height="200" style="fill: #2c233d"/>
  <g>
    <path d="M169.59,135.1a12.25,12.25,0,0,1,3.17.36,6,6,0,0,1,2.21,1.06,4.28,4.28,0,0,1,1.3,1.71,5.9,5.9,0,0,1,.42,2.29,4.59,4.59,0,0,1-.29,1.63,5,5,0,0,1-.84,1.45,5.33,5.33,0,0,1-1.36,1.15,6.55,6.55,0,0,1-1.85.75,6.8,6.8,0,0,1,3.87,1.67,4.55,4.55,0,0,1,1.35,3.43,6,6,0,0,1-.48,2.44,5,5,0,0,1-1.4,1.84,6.4,6.4,0,0,1-2.26,1.15,10.68,10.68,0,0,1-3,.4h-6.92V135.1ZM165,136.33v8.76h4.61a7.48,7.48,0,0,0,2.52-.38,5,5,0,0,0,1.72-1,3.87,3.87,0,0,0,1-1.4,4.27,4.27,0,0,0,.32-1.61,4,4,0,0,0-1.36-3.26,6.62,6.62,0,0,0-4.21-1.11Zm5.35,18.87A6.43,6.43,0,0,0,174.6,154a4.22,4.22,0,0,0,1.44-3.41,4.16,4.16,0,0,0-.39-1.82,3.8,3.8,0,0,0-1.11-1.37,5.17,5.17,0,0,0-1.78-.87,8.72,8.72,0,0,0-2.4-.3H165v9Z" style="fill: #fff"/>
    <path d="M188.28,141.19a7.21,7.21,0,0,1,2.89.55,5.89,5.89,0,0,1,2.15,1.56,6.92,6.92,0,0,1,1.33,2.43,11.25,11.25,0,0,1,0,6.37,6.92,6.92,0,0,1-1.33,2.43,5.81,5.81,0,0,1-2.15,1.55,8,8,0,0,1-5.77,0,5.88,5.88,0,0,1-2.16-1.55,6.85,6.85,0,0,1-1.34-2.43,11.25,11.25,0,0,1,0-6.37,6.85,6.85,0,0,1,1.34-2.43,6,6,0,0,1,2.16-1.56A7.21,7.21,0,0,1,188.28,141.19Zm0,14.3a5.56,5.56,0,0,0,2.34-.46,4.43,4.43,0,0,0,1.67-1.32,5.82,5.82,0,0,0,1-2.07,11.31,11.31,0,0,0,0-5.43,5.9,5.9,0,0,0-1-2.09,4.47,4.47,0,0,0-1.67-1.33,6.11,6.11,0,0,0-4.69,0,4.47,4.47,0,0,0-1.67,1.33,6,6,0,0,0-1,2.09,11,11,0,0,0,0,5.43,5.89,5.89,0,0,0,1,2.07,4.43,4.43,0,0,0,1.67,1.32A5.57,5.57,0,0,0,188.28,155.49Z" style="fill: #fff"/>
    <path d="M201.28,145.05a9.36,9.36,0,0,1,.79-1.63,5.18,5.18,0,0,1,1-1.21,4.22,4.22,0,0,1,1.3-.76,4.58,4.58,0,0,1,1.59-.26,5.1,5.1,0,0,1,.92.08,2.32,2.32,0,0,1,.8.29l-.12,1a.29.29,0,0,1-.29.24,2.22,2.22,0,0,1-.55-.11,3.64,3.64,0,0,0-1-.11,4.19,4.19,0,0,0-1.54.26,3.55,3.55,0,0,0-1.21.79,5.06,5.06,0,0,0-.93,1.3,12.3,12.3,0,0,0-.73,1.79v9.71h-1.45v-15h.77a.5.5,0,0,1,.36.11.61.61,0,0,1,.13.36Z" style="fill: #fff"/>
    <path d="M212.69,144.06a8.52,8.52,0,0,1,2.4-2.08,6,6,0,0,1,3-.78,5.64,5.64,0,0,1,2.18.39,4,4,0,0,1,1.56,1.13,5,5,0,0,1,.93,1.78,8.07,8.07,0,0,1,.32,2.35v9.58h-1.45v-9.58a5.14,5.14,0,0,0-1-3.31,3.55,3.55,0,0,0-2.94-1.2,5.32,5.32,0,0,0-2.73.75,7.74,7.74,0,0,0-2.27,2.07v11.27h-1.45v-15h.8a.4.4,0,0,1,.44.38Z" style="fill: #fff"/>
    <path d="M241.68,156.67a3.22,3.22,0,0,1-2.37-.84,3.53,3.53,0,0,1-.85-2.61V143H236.3a.4.4,0,0,1-.27-.09.32.32,0,0,1-.11-.26v-.56l2.56-.18.36-5.36a.56.56,0,0,1,.12-.24.32.32,0,0,1,.26-.11h.68v5.73h4.73V143H239.9v10.17a3.18,3.18,0,0,0,.16,1.06,2,2,0,0,0,.44.73,1.71,1.71,0,0,0,.65.42,2.38,2.38,0,0,0,.81.14,2.49,2.49,0,0,0,.93-.16,3.88,3.88,0,0,0,.68-.35,4.55,4.55,0,0,0,.47-.35.51.51,0,0,1,.29-.16.33.33,0,0,1,.24.15l.39.63a4.18,4.18,0,0,1-1.45,1A4.55,4.55,0,0,1,241.68,156.67Z" style="fill: #fff"/>
    <path d="M254.55,141.19a7.21,7.21,0,0,1,2.89.55,5.89,5.89,0,0,1,2.15,1.56,6.92,6.92,0,0,1,1.33,2.43,11.25,11.25,0,0,1,0,6.37,6.92,6.92,0,0,1-1.33,2.43,5.81,5.81,0,0,1-2.15,1.55,8,8,0,0,1-5.77,0,5.88,5.88,0,0,1-2.16-1.55,6.85,6.85,0,0,1-1.34-2.43,11.25,11.25,0,0,1,0-6.37,6.85,6.85,0,0,1,1.34-2.43,6,6,0,0,1,2.16-1.56A7.21,7.21,0,0,1,254.55,141.19Zm0,14.3a5.56,5.56,0,0,0,2.34-.46,4.43,4.43,0,0,0,1.67-1.32,5.82,5.82,0,0,0,1-2.07,11.31,11.31,0,0,0,0-5.43,5.9,5.9,0,0,0-1-2.09,4.47,4.47,0,0,0-1.67-1.33,6.11,6.11,0,0,0-4.69,0,4.47,4.47,0,0,0-1.67,1.33,6,6,0,0,0-1,2.09,11,11,0,0,0,0,5.43,5.89,5.89,0,0,0,1,2.07,4.43,4.43,0,0,0,1.67,1.32A5.57,5.57,0,0,0,254.55,155.49Z" style="fill: #fff"/>
    <path d="M285.2,143.44l-.14.13a.3.3,0,0,1-.19.05.75.75,0,0,1-.41-.2,5.14,5.14,0,0,0-.69-.44,5.94,5.94,0,0,0-1.09-.44,5.4,5.4,0,0,0-1.59-.2,5.47,5.47,0,0,0-2.3.46,4.63,4.63,0,0,0-1.69,1.32,5.86,5.86,0,0,0-1,2.08,9.82,9.82,0,0,0-.35,2.74,9.68,9.68,0,0,0,.37,2.8,6,6,0,0,0,1,2.06,4.46,4.46,0,0,0,1.64,1.27,5.13,5.13,0,0,0,2.14.44,5.53,5.53,0,0,0,1.82-.26,5.9,5.9,0,0,0,1.21-.56,5,5,0,0,0,.75-.56.75.75,0,0,1,.45-.26.37.37,0,0,1,.3.15l.38.48a4.36,4.36,0,0,1-.87.84,5.9,5.9,0,0,1-1.19.68,7.29,7.29,0,0,1-1.44.44,8.09,8.09,0,0,1-1.62.16,6.43,6.43,0,0,1-2.61-.52,5.68,5.68,0,0,1-2-1.51,7,7,0,0,1-1.33-2.42,11.24,11.24,0,0,1,0-6.39,7,7,0,0,1,1.33-2.44,6,6,0,0,1,2.13-1.59,7,7,0,0,1,2.89-.56,6.74,6.74,0,0,1,2.59.47,6.4,6.4,0,0,1,2,1.27Z" style="fill: #fff"/>
    <path d="M295.74,141.19a7.21,7.21,0,0,1,2.89.55,5.89,5.89,0,0,1,2.15,1.56,6.92,6.92,0,0,1,1.33,2.43,11.25,11.25,0,0,1,0,6.37,6.92,6.92,0,0,1-1.33,2.43,5.81,5.81,0,0,1-2.15,1.55,8,8,0,0,1-5.77,0,5.88,5.88,0,0,1-2.16-1.55,6.85,6.85,0,0,1-1.34-2.43,11.25,11.25,0,0,1,0-6.37,6.85,6.85,0,0,1,1.34-2.43,6,6,0,0,1,2.16-1.56A7.21,7.21,0,0,1,295.74,141.19Zm0,14.3a5.56,5.56,0,0,0,2.34-.46,4.43,4.43,0,0,0,1.67-1.32,5.82,5.82,0,0,0,1-2.07,11.31,11.31,0,0,0,0-5.43,5.9,5.9,0,0,0-1-2.09,4.47,4.47,0,0,0-1.67-1.33,6.11,6.11,0,0,0-4.69,0,4.47,4.47,0,0,0-1.67,1.33,6,6,0,0,0-1,2.09,11,11,0,0,0,0,5.43,5.89,5.89,0,0,0,1,2.07,4.43,4.43,0,0,0,1.67,1.32A5.57,5.57,0,0,0,295.74,155.49Z" style="fill: #fff"/>
    <path d="M319,134.5v21.93h-.78a.41.41,0,0,1-.45-.39l-.15-2.37a8,8,0,0,1-2.32,2.15,5.67,5.67,0,0,1-3,.8,5.21,5.21,0,0,1-4.31-1.91q-1.54-1.91-1.54-5.74a10.55,10.55,0,0,1,.43-3.07,7.34,7.34,0,0,1,1.26-2.47,5.94,5.94,0,0,1,2-1.65,6.2,6.2,0,0,1,2.79-.6,5.84,5.84,0,0,1,2.64.56,5.54,5.54,0,0,1,1.94,1.66V134.5Zm-1.43,10.16a5.13,5.13,0,0,0-1.91-1.82,5.75,5.75,0,0,0-4.71,0,4.56,4.56,0,0,0-1.66,1.36,6.15,6.15,0,0,0-1,2.11A10.17,10.17,0,0,0,308,149a8,8,0,0,0,1.23,4.92,4.23,4.23,0,0,0,3.55,1.57,5,5,0,0,0,2.7-.77,7.34,7.34,0,0,0,2.15-2.16Z" style="fill: #fff"/>
    <path d="M325.24,148.34v.29a10.13,10.13,0,0,0,.39,3,6.06,6.06,0,0,0,1.11,2.15,4.59,4.59,0,0,0,1.75,1.3,5.79,5.79,0,0,0,2.29.44,6.84,6.84,0,0,0,2-.25,7.27,7.27,0,0,0,1.39-.56,7.68,7.68,0,0,0,.9-.56,1,1,0,0,1,.48-.25.34.34,0,0,1,.3.15l.39.48a4.09,4.09,0,0,1-1,.84,6.81,6.81,0,0,1-1.33.67,9.57,9.57,0,0,1-1.57.44,8.63,8.63,0,0,1-1.68.17,7.14,7.14,0,0,1-2.8-.53,5.93,5.93,0,0,1-2.17-1.56,7.09,7.09,0,0,1-1.39-2.51,10.84,10.84,0,0,1-.49-3.4,9.26,9.26,0,0,1,.46-3,6.82,6.82,0,0,1,1.33-2.35,6,6,0,0,1,2.13-1.54,7,7,0,0,1,2.86-.56,6.24,6.24,0,0,1,2.35.44,5.33,5.33,0,0,1,1.88,1.27,6,6,0,0,1,1.26,2.06,7.92,7.92,0,0,1,.46,2.8.8.8,0,0,1-.09.45.35.35,0,0,1-.3.12Zm10-.92a6.46,6.46,0,0,0-.34-2.16,4.6,4.6,0,0,0-1-1.62,4.17,4.17,0,0,0-1.47-1,4.83,4.83,0,0,0-1.88-.35,5.64,5.64,0,0,0-2.08.36,4.56,4.56,0,0,0-1.59,1,5.2,5.2,0,0,0-1.08,1.63,7.6,7.6,0,0,0-.54,2.13Z" style="fill: #fff"/>
  </g>
  <path d="M92.65,76.8,117,54.56h7.12v60H108.33V83.76L92.65,98.08,76.89,83.84v30.72H61v-60h7.12Z" style="fill: #fff"/>
  <path d="M136.17,54.89h15.76v59.67H136.17Z" style="fill: #fff"/>
  <path d="M227.45,54.48h47.28V70.16H258.81v44.4H243V70.16h-15.6Z" style="fill: #fff"/>
  <path d="M432.47,114.56l-28.32-28.4v28.4H388.39v-60h6.4l28.4,28.32V54.56H439v60Z" style="fill: #fff"/>
  <polygon points="220.59 114.37 202.28 114.37 193 100.59 202.13 86.95 220.59 114.37" style="fill: #ff8d4e"/>
  <polygon points="202.34 79.51 220.51 54.6 202.21 54.6 193.14 66.92 202.34 79.51" style="fill: #c25581"/>
  <polygon points="199.6 83.31 178.62 54.7 160.31 54.7 181.22 83.31 160.24 114.46 178.55 114.46 199.6 83.31" style="fill: #fff"/>
  <path d="M327.9,88q0-9.74-3.36-15.9A20.85,20.85,0,0,0,316,63.2a23.13,23.13,0,0,0-10.81-2.71,28.54,28.54,0,0,0-14.44,3.42,21.77,21.77,0,0,0-8.91,9.43,30.45,30.45,0,0,0-3,13.62,31.18,31.18,0,0,0,3,13.8,22.43,22.43,0,0,0,8.91,9.64,27.72,27.72,0,0,0,14.44,3.55,41.42,41.42,0,0,0,12.93-1.7,46.48,46.48,0,0,0,8.64-3.78V97.16q-9.93,5.17-18.14,5.17a13.32,13.32,0,0,1-13-10.7H327.9ZM304.17,71.7a7.35,7.35,0,0,1,6.29,3,12.51,12.51,0,0,1,2.16,7c-.93-1.88-4.49-3.27-8.75-3.27s-7.8,1.39-8.75,3.26a11.53,11.53,0,0,1,2.47-7A8.12,8.12,0,0,1,304.17,71.7Z" style="fill: #ff8d4e"/>
  <path d="M379.63,69.19a24.84,24.84,0,0,0-10.17-10.76q-6.8-3.91-16.48-3.91a26.39,26.39,0,0,0-12.33,3.1,23.79,23.79,0,0,0-9.78,10.13,27.87,27.87,0,0,0-2.34,5.85A39.58,39.58,0,0,1,330.9,88v2.08h33a15.2,15.2,0,0,1-14.88,12.21c-5.87,0-12.32-1.76-19.33-5.23v13a56.12,56.12,0,0,0,8.5,3.57A47.26,47.26,0,0,0,353,115.52q9.68,0,16.48-4.05a25.59,25.59,0,0,0,10.17-11A35.58,35.58,0,0,0,383,84.73,34.75,34.75,0,0,0,379.63,69.19Zm-25.51-1.88a9.27,9.27,0,0,1,7.49,3.44,12.45,12.45,0,0,1,2.67,6.32c-1.79-1.73-5.3-2.91-9.34-2.91-5.34,0-9.74,2.05-10.48,4.72a14.38,14.38,0,0,1,2.47-8.19A8.39,8.39,0,0,1,354.11,67.31Z" style="fill: #c25581"/>
  <path d="M327.9,88q0-9.74-3.36-15.9A20.85,20.85,0,0,0,316,63.2a23.13,23.13,0,0,0-10.81-2.71,28.54,28.54,0,0,0-14.44,3.42,21.77,21.77,0,0,0-8.91,9.43,30.45,30.45,0,0,0-3,13.62,31.18,31.18,0,0,0,3,13.8,22.43,22.43,0,0,0,8.91,9.64,27.72,27.72,0,0,0,14.44,3.55,41.42,41.42,0,0,0,12.93-1.7,46.48,46.48,0,0,0,8.64-3.78V97.16q-9.93,5.17-18.14,5.17a13.32,13.32,0,0,1-13-10.7H327.9ZM304.17,71.7a7.35,7.35,0,0,1,6.29,3,12.51,12.51,0,0,1,2.16,7c-.93-1.88-4.49-3.27-8.75-3.27s-7.8,1.39-8.75,3.26a11.53,11.53,0,0,1,2.47-7A8.12,8.12,0,0,1,304.17,71.7Z" style="fill: #ff8d4e"/>
  <path d="M379.63,69.19a24.84,24.84,0,0,0-10.17-10.76q-6.8-3.91-16.48-3.91a26.39,26.39,0,0,0-12.33,3.1,23.79,23.79,0,0,0-9.78,10.13,27.87,27.87,0,0,0-2.34,5.85A39.58,39.58,0,0,1,330.9,88v2.08h33a15.2,15.2,0,0,1-14.88,12.21c-5.87,0-12.32-1.76-19.33-5.23v13a56.12,56.12,0,0,0,8.5,3.57A47.26,47.26,0,0,0,353,115.52q9.68,0,16.48-4.05a25.59,25.59,0,0,0,10.17-11A35.58,35.58,0,0,0,383,84.73,34.75,34.75,0,0,0,379.63,69.19Zm-25.51-1.88a9.27,9.27,0,0,1,7.49,3.44,12.45,12.45,0,0,1,2.67,6.32c-1.79-1.73-5.3-2.91-9.34-2.91-5.34,0-9.74,2.05-10.48,4.72a14.38,14.38,0,0,1,2.47-8.19A8.39,8.39,0,0,1,354.11,67.31Z" style="fill: #c25581"/>
  <path d="M327.9,88q0-9.74-3.36-15.9A20.85,20.85,0,0,0,316,63.2a23.13,23.13,0,0,0-10.81-2.71,28.54,28.54,0,0,0-14.44,3.42,21.77,21.77,0,0,0-8.91,9.43,30.45,30.45,0,0,0-3,13.62,31.18,31.18,0,0,0,3,13.8,22.43,22.43,0,0,0,8.91,9.64,27.72,27.72,0,0,0,14.44,3.55,41.42,41.42,0,0,0,12.93-1.7,46.48,46.48,0,0,0,8.64-3.78V97.16q-9.93,5.17-18.14,5.17a13.32,13.32,0,0,1-13-10.7H327.9ZM304.17,71.7a7.35,7.35,0,0,1,6.29,3,12.51,12.51,0,0,1,2.16,7c-.93-1.88-4.49-3.27-8.75-3.27s-7.8,1.39-8.75,3.26a11.53,11.53,0,0,1,2.47-7A8.12,8.12,0,0,1,304.17,71.7Z" style="fill: #ff8d4e"/>
  <path d="M379.63,69.19a24.84,24.84,0,0,0-10.17-10.76q-6.8-3.91-16.48-3.91a26.39,26.39,0,0,0-12.33,3.1,23.79,23.79,0,0,0-9.78,10.13,27.87,27.87,0,0,0-2.34,5.85A39.58,39.58,0,0,1,330.9,88v2.08h33a15.2,15.2,0,0,1-14.88,12.21c-5.87,0-12.32-1.76-19.33-5.23v13a56.12,56.12,0,0,0,8.5,3.57A47.26,47.26,0,0,0,353,115.52q9.68,0,16.48-4.05a25.59,25.59,0,0,0,10.17-11A35.58,35.58,0,0,0,383,84.73,34.75,34.75,0,0,0,379.63,69.19Zm-25.51-1.88a9.27,9.27,0,0,1,7.49,3.44,12.45,12.45,0,0,1,2.67,6.32c-1.79-1.73-5.3-2.91-9.34-2.91-5.34,0-9.74,2.05-10.48,4.72a14.38,14.38,0,0,1,2.47-8.19A8.39,8.39,0,0,1,354.11,67.31Z" style="fill: #c25581"/>
  <path d="M327.9,88q0-9.74-3.36-15.9A20.85,20.85,0,0,0,316,63.2a23.13,23.13,0,0,0-10.81-2.71,28.54,28.54,0,0,0-14.44,3.42,21.77,21.77,0,0,0-8.91,9.43,30.45,30.45,0,0,0-3,13.62,31.18,31.18,0,0,0,3,13.8,22.43,22.43,0,0,0,8.91,9.64,27.72,27.72,0,0,0,14.44,3.55,41.42,41.42,0,0,0,12.93-1.7,46.48,46.48,0,0,0,8.64-3.78V97.16q-9.93,5.17-18.14,5.17a13.32,13.32,0,0,1-13-10.7H327.9ZM304.17,71.7a7.35,7.35,0,0,1,6.29,3,12.51,12.51,0,0,1,2.16,7c-.93-1.88-4.49-3.27-8.75-3.27s-7.8,1.39-8.75,3.26a11.53,11.53,0,0,1,2.47-7A8.12,8.12,0,0,1,304.17,71.7Z" style="fill: #ff8d4e"/>
  <path d="M379.63,69.19a24.84,24.84,0,0,0-10.17-10.76q-6.8-3.91-16.48-3.91a26.39,26.39,0,0,0-12.33,3.1,23.79,23.79,0,0,0-9.78,10.13,27.87,27.87,0,0,0-2.34,5.85A39.58,39.58,0,0,1,330.9,88v2.08h33a15.2,15.2,0,0,1-14.88,12.21c-5.87,0-12.32-1.76-19.33-5.23v13a56.12,56.12,0,0,0,8.5,3.57A47.26,47.26,0,0,0,353,115.52q9.68,0,16.48-4.05a25.59,25.59,0,0,0,10.17-11A35.58,35.58,0,0,0,383,84.73,34.75,34.75,0,0,0,379.63,69.19Zm-25.51-1.88a9.27,9.27,0,0,1,7.49,3.44,12.45,12.45,0,0,1,2.67,6.32c-1.79-1.73-5.3-2.91-9.34-2.91-5.34,0-9.74,2.05-10.48,4.72a14.38,14.38,0,0,1,2.47-8.19A8.39,8.39,0,0,1,354.11,67.31Z" style="fill: #c25581"/>
</svg>
