<svg xmlns="http://www.w3.org/2000/svg" id="svg3464" width="500" height="200" viewBox="0 0 500 200"><title>logo_mixteen_alt</title><rect width="500" height="200" style="fill:#2c233d"/><path d="M93.65,90.8,118,68.56h7.12v60H109.33V97.76L93.65,112.08,77.89,97.84v30.72H62v-60h7.12Z" style="fill:#fff"/><path d="M137.17,68.89h15.76v59.67H137.17Z" style="fill:#fff"/><path d="M228.45,68.48h47.28V84.16H259.81v44.4H244V84.16h-15.6Z" style="fill:#fff"/><path d="M433.47,128.56l-28.32-28.4v28.4H389.39v-60h6.4l28.4,28.32V68.56H440v60Z" style="fill:#fff"/><polygon points="221.59 128.37 203.28 128.37 194 114.59 203.13 100.95 221.59 128.37" style="fill:#ff8d4e"/><polygon points="203.34 93.51 221.51 68.61 203.21 68.61 194.14 80.92 203.34 93.51" style="fill:#c25581"/><polygon points="200.6 97.31 179.62 68.7 161.31 68.7 182.22 97.31 161.24 128.46 179.55 128.46 200.6 97.31" style="fill:#fff"/><path d="M328.9,102q0-9.74-3.36-15.9A20.85,20.85,0,0,0,317,77.2a23.13,23.13,0,0,0-10.81-2.71,28.54,28.54,0,0,0-14.44,3.42,21.77,21.77,0,0,0-8.91,9.43,30.45,30.45,0,0,0-3,13.62,31.18,31.18,0,0,0,3,13.8,22.43,22.43,0,0,0,8.91,9.64,27.72,27.72,0,0,0,14.44,3.55,41.42,41.42,0,0,0,12.93-1.7,46.48,46.48,0,0,0,8.64-3.78V111.16q-9.93,5.17-18.14,5.17a13.32,13.32,0,0,1-13-10.7H328.9ZM305.17,85.7a7.35,7.35,0,0,1,6.29,3,12.51,12.51,0,0,1,2.16,7c-.93-1.88-4.49-3.27-8.75-3.27s-7.8,1.39-8.75,3.26a11.53,11.53,0,0,1,2.47-7A8.12,8.12,0,0,1,305.17,85.7Z" style="fill:#ff8d4e"/><path d="M380.63,83.19a24.84,24.84,0,0,0-10.17-10.76q-6.8-3.91-16.48-3.91a26.39,26.39,0,0,0-12.33,3.1,23.79,23.79,0,0,0-9.78,10.13,27.87,27.87,0,0,0-2.34,5.85A39.58,39.58,0,0,1,331.9,102v2.08h33a15.2,15.2,0,0,1-14.88,12.21c-5.87,0-12.32-1.76-19.33-5.23v13a56.12,56.12,0,0,0,8.5,3.57A47.26,47.26,0,0,0,354,129.52q9.68,0,16.48-4.05a25.59,25.59,0,0,0,10.17-11A35.58,35.58,0,0,0,384,98.73,34.75,34.75,0,0,0,380.63,83.19Zm-25.51-1.88a9.27,9.27,0,0,1,7.49,3.44,12.45,12.45,0,0,1,2.67,6.32c-1.79-1.73-5.3-2.91-9.34-2.91-5.34,0-9.74,2.05-10.48,4.72a14.38,14.38,0,0,1,2.47-8.19A8.39,8.39,0,0,1,355.11,81.31Z" style="fill:#c25581"/><path d="M328.9,102q0-9.74-3.36-15.9A20.85,20.85,0,0,0,317,77.2a23.13,23.13,0,0,0-10.81-2.71,28.54,28.54,0,0,0-14.44,3.42,21.77,21.77,0,0,0-8.91,9.43,30.45,30.45,0,0,0-3,13.62,31.18,31.18,0,0,0,3,13.8,22.43,22.43,0,0,0,8.91,9.64,27.72,27.72,0,0,0,14.44,3.55,41.42,41.42,0,0,0,12.93-1.7,46.48,46.48,0,0,0,8.64-3.78V111.16q-9.93,5.17-18.14,5.17a13.32,13.32,0,0,1-13-10.7H328.9ZM305.17,85.7a7.35,7.35,0,0,1,6.29,3,12.51,12.51,0,0,1,2.16,7c-.93-1.88-4.49-3.27-8.75-3.27s-7.8,1.39-8.75,3.26a11.53,11.53,0,0,1,2.47-7A8.12,8.12,0,0,1,305.17,85.7Z" style="fill:#ff8d4e"/><path d="M380.63,83.19a24.84,24.84,0,0,0-10.17-10.76q-6.8-3.91-16.48-3.91a26.39,26.39,0,0,0-12.33,3.1,23.79,23.79,0,0,0-9.78,10.13,27.87,27.87,0,0,0-2.34,5.85A39.58,39.58,0,0,1,331.9,102v2.08h33a15.2,15.2,0,0,1-14.88,12.21c-5.87,0-12.32-1.76-19.33-5.23v13a56.12,56.12,0,0,0,8.5,3.57A47.26,47.26,0,0,0,354,129.52q9.68,0,16.48-4.05a25.59,25.59,0,0,0,10.17-11A35.58,35.58,0,0,0,384,98.73,34.75,34.75,0,0,0,380.63,83.19Zm-25.51-1.88a9.27,9.27,0,0,1,7.49,3.44,12.45,12.45,0,0,1,2.67,6.32c-1.79-1.73-5.3-2.91-9.34-2.91-5.34,0-9.74,2.05-10.48,4.72a14.38,14.38,0,0,1,2.47-8.19A8.39,8.39,0,0,1,355.11,81.31Z" style="fill:#c25581"/><path d="M328.9,102q0-9.74-3.36-15.9A20.85,20.85,0,0,0,317,77.2a23.13,23.13,0,0,0-10.81-2.71,28.54,28.54,0,0,0-14.44,3.42,21.77,21.77,0,0,0-8.91,9.43,30.45,30.45,0,0,0-3,13.62,31.18,31.18,0,0,0,3,13.8,22.43,22.43,0,0,0,8.91,9.64,27.72,27.72,0,0,0,14.44,3.55,41.42,41.42,0,0,0,12.93-1.7,46.48,46.48,0,0,0,8.64-3.78V111.16q-9.93,5.17-18.14,5.17a13.32,13.32,0,0,1-13-10.7H328.9ZM305.17,85.7a7.35,7.35,0,0,1,6.29,3,12.51,12.51,0,0,1,2.16,7c-.93-1.88-4.49-3.27-8.75-3.27s-7.8,1.39-8.75,3.26a11.53,11.53,0,0,1,2.47-7A8.12,8.12,0,0,1,305.17,85.7Z" style="fill:#ff8d4e"/><path d="M380.63,83.19a24.84,24.84,0,0,0-10.17-10.76q-6.8-3.91-16.48-3.91a26.39,26.39,0,0,0-12.33,3.1,23.79,23.79,0,0,0-9.78,10.13,27.87,27.87,0,0,0-2.34,5.85A39.58,39.58,0,0,1,331.9,102v2.08h33a15.2,15.2,0,0,1-14.88,12.21c-5.87,0-12.32-1.76-19.33-5.23v13a56.12,56.12,0,0,0,8.5,3.57A47.26,47.26,0,0,0,354,129.52q9.68,0,16.48-4.05a25.59,25.59,0,0,0,10.17-11A35.58,35.58,0,0,0,384,98.73,34.75,34.75,0,0,0,380.63,83.19Zm-25.51-1.88a9.27,9.27,0,0,1,7.49,3.44,12.45,12.45,0,0,1,2.67,6.32c-1.79-1.73-5.3-2.91-9.34-2.91-5.34,0-9.74,2.05-10.48,4.72a14.38,14.38,0,0,1,2.47-8.19A8.39,8.39,0,0,1,355.11,81.31Z" style="fill:#c25581"/><path d="M328.9,102q0-9.74-3.36-15.9A20.85,20.85,0,0,0,317,77.2a23.13,23.13,0,0,0-10.81-2.71,28.54,28.54,0,0,0-14.44,3.42,21.77,21.77,0,0,0-8.91,9.43,30.45,30.45,0,0,0-3,13.62,31.18,31.18,0,0,0,3,13.8,22.43,22.43,0,0,0,8.91,9.64,27.72,27.72,0,0,0,14.44,3.55,41.42,41.42,0,0,0,12.93-1.7,46.48,46.48,0,0,0,8.64-3.78V111.16q-9.93,5.17-18.14,5.17a13.32,13.32,0,0,1-13-10.7H328.9ZM305.17,85.7a7.35,7.35,0,0,1,6.29,3,12.51,12.51,0,0,1,2.16,7c-.93-1.88-4.49-3.27-8.75-3.27s-7.8,1.39-8.75,3.26a11.53,11.53,0,0,1,2.47-7A8.12,8.12,0,0,1,305.17,85.7Z" style="fill:#ff8d4e"/><path d="M380.63,83.19a24.84,24.84,0,0,0-10.17-10.76q-6.8-3.91-16.48-3.91a26.39,26.39,0,0,0-12.33,3.1,23.79,23.79,0,0,0-9.78,10.13,27.87,27.87,0,0,0-2.34,5.85A39.58,39.58,0,0,1,331.9,102v2.08h33a15.2,15.2,0,0,1-14.88,12.21c-5.87,0-12.32-1.76-19.33-5.23v13a56.12,56.12,0,0,0,8.5,3.57A47.26,47.26,0,0,0,354,129.52q9.68,0,16.48-4.05a25.59,25.59,0,0,0,10.17-11A35.58,35.58,0,0,0,384,98.73,34.75,34.75,0,0,0,380.63,83.19Zm-25.51-1.88a9.27,9.27,0,0,1,7.49,3.44,12.45,12.45,0,0,1,2.67,6.32c-1.79-1.73-5.3-2.91-9.34-2.91-5.34,0-9.74,2.05-10.48,4.72a14.38,14.38,0,0,1,2.47-8.19A8.39,8.39,0,0,1,355.11,81.31Z" style="fill:#c25581"/></svg>