<svg xmlns="http://www.w3.org/2000/svg" width="400" height="90" viewBox="0 0 400 90"><path d="M40.323 33.707l24.35-22.24h7.12v60h-15.79v-30.8l-15.68 14.32-15.76-14.24v30.72H8.673v-60h7.12zM83.843 11.797h15.76v59.67h-15.76zM175.123 11.387h47.28v15.68h-15.92v44.4h-15.81v-44.4h-15.6zM380.143 71.467l-28.32-28.4v28.4h-15.76v-60h6.4l28.4 28.32v-28.32h15.81v60z" fill="#fff"/><path fill="#ff8d4e" d="M140.673 57.497l9.13-13.64 18.46 27.42h-18.31"/><path fill="#c25581" d="M149.883 11.517l-9.07 12.31 9.2 12.59 18.17-24.9"/><path fill="#fff" d="M147.273 40.217l-20.98-28.61h-18.31l20.91 28.61-20.98 31.15h18.31"/><path d="M275.573 44.907q0-9.74-3.36-15.9a20.85 20.85 0 0 0-8.54-8.9 23.13 23.13 0 0 0-10.81-2.71 28.54 28.54 0 0 0-14.44 3.42 21.77 21.77 0 0 0-8.91 9.43 30.45 30.45 0 0 0-3 13.62 31.18 31.18 0 0 0 3 13.8 22.43 22.43 0 0 0 8.91 9.64 27.72 27.72 0 0 0 14.44 3.55 41.42 41.42 0 0 0 12.93-1.7 46.48 46.48 0 0 0 8.64-3.78v-11.31q-9.93 5.17-18.14 5.17a13.32 13.32 0 0 1-13-10.7h32.28zm-23.73-16.3a7.35 7.35 0 0 1 6.29 3 12.51 12.51 0 0 1 2.16 7c-.93-1.88-4.49-3.27-8.75-3.27s-7.8 1.39-8.75 3.26a11.53 11.53 0 0 1 2.47-7 8.12 8.12 0 0 1 6.58-2.99z" fill="#ff8d4e"/><path d="M327.303 26.097a24.84 24.84 0 0 0-10.17-10.76q-6.8-3.91-16.48-3.91a26.39 26.39 0 0 0-12.33 3.1 23.79 23.79 0 0 0-9.78 10.13 27.87 27.87 0 0 0-2.34 5.85 39.58 39.58 0 0 1 2.37 14.4v2.08h33a15.2 15.2 0 0 1-14.88 12.21c-5.87 0-12.32-1.76-19.33-5.23v13a56.12 56.12 0 0 0 8.5 3.57 47.26 47.26 0 0 0 14.81 1.89q9.68 0 16.48-4.05a25.59 25.59 0 0 0 10.17-11 35.58 35.58 0 0 0 3.35-15.74 34.75 34.75 0 0 0-3.37-15.54zm-25.51-1.88a9.27 9.27 0 0 1 7.49 3.44 12.45 12.45 0 0 1 2.67 6.32c-1.79-1.73-5.3-2.91-9.34-2.91-5.34 0-9.74 2.05-10.48 4.72a14.38 14.38 0 0 1 2.47-8.19 8.39 8.39 0 0 1 7.18-3.38z" fill="#c25581"/><path d="M275.573 44.907q0-9.74-3.36-15.9a20.85 20.85 0 0 0-8.54-8.9 23.13 23.13 0 0 0-10.81-2.71 28.54 28.54 0 0 0-14.44 3.42 21.77 21.77 0 0 0-8.91 9.43 30.45 30.45 0 0 0-3 13.62 31.18 31.18 0 0 0 3 13.8 22.43 22.43 0 0 0 8.91 9.64 27.72 27.72 0 0 0 14.44 3.55 41.42 41.42 0 0 0 12.93-1.7 46.48 46.48 0 0 0 8.64-3.78v-11.31q-9.93 5.17-18.14 5.17a13.32 13.32 0 0 1-13-10.7h32.28zm-23.73-16.3a7.35 7.35 0 0 1 6.29 3 12.51 12.51 0 0 1 2.16 7c-.93-1.88-4.49-3.27-8.75-3.27s-7.8 1.39-8.75 3.26a11.53 11.53 0 0 1 2.47-7 8.12 8.12 0 0 1 6.58-2.99z" fill="#ff8d4e"/><path d="M327.303 26.097a24.84 24.84 0 0 0-10.17-10.76q-6.8-3.91-16.48-3.91a26.39 26.39 0 0 0-12.33 3.1 23.79 23.79 0 0 0-9.78 10.13 27.87 27.87 0 0 0-2.34 5.85 39.58 39.58 0 0 1 2.37 14.4v2.08h33a15.2 15.2 0 0 1-14.88 12.21c-5.87 0-12.32-1.76-19.33-5.23v13a56.12 56.12 0 0 0 8.5 3.57 47.26 47.26 0 0 0 14.81 1.89q9.68 0 16.48-4.05a25.59 25.59 0 0 0 10.17-11 35.58 35.58 0 0 0 3.35-15.74 34.75 34.75 0 0 0-3.37-15.54zm-25.51-1.88a9.27 9.27 0 0 1 7.49 3.44 12.45 12.45 0 0 1 2.67 6.32c-1.79-1.73-5.3-2.91-9.34-2.91-5.34 0-9.74 2.05-10.48 4.72a14.38 14.38 0 0 1 2.47-8.19 8.39 8.39 0 0 1 7.18-3.38z" fill="#c25581"/><path d="M275.573 44.907q0-9.74-3.36-15.9a20.85 20.85 0 0 0-8.54-8.9 23.13 23.13 0 0 0-10.81-2.71 28.54 28.54 0 0 0-14.44 3.42 21.77 21.77 0 0 0-8.91 9.43 30.45 30.45 0 0 0-3 13.62 31.18 31.18 0 0 0 3 13.8 22.43 22.43 0 0 0 8.91 9.64 27.72 27.72 0 0 0 14.44 3.55 41.42 41.42 0 0 0 12.93-1.7 46.48 46.48 0 0 0 8.64-3.78v-11.31q-9.93 5.17-18.14 5.17a13.32 13.32 0 0 1-13-10.7h32.28zm-23.73-16.3a7.35 7.35 0 0 1 6.29 3 12.51 12.51 0 0 1 2.16 7c-.93-1.88-4.49-3.27-8.75-3.27s-7.8 1.39-8.75 3.26a11.53 11.53 0 0 1 2.47-7 8.12 8.12 0 0 1 6.58-2.99z" fill="#ff8d4e"/><path d="M327.303 26.097a24.84 24.84 0 0 0-10.17-10.76q-6.8-3.91-16.48-3.91a26.39 26.39 0 0 0-12.33 3.1 23.79 23.79 0 0 0-9.78 10.13 27.87 27.87 0 0 0-2.34 5.85 39.58 39.58 0 0 1 2.37 14.4v2.08h33a15.2 15.2 0 0 1-14.88 12.21c-5.87 0-12.32-1.76-19.33-5.23v13a56.12 56.12 0 0 0 8.5 3.57 47.26 47.26 0 0 0 14.81 1.89q9.68 0 16.48-4.05a25.59 25.59 0 0 0 10.17-11 35.58 35.58 0 0 0 3.35-15.74 34.75 34.75 0 0 0-3.37-15.54zm-25.51-1.88a9.27 9.27 0 0 1 7.49 3.44 12.45 12.45 0 0 1 2.67 6.32c-1.79-1.73-5.3-2.91-9.34-2.91-5.34 0-9.74 2.05-10.48 4.72a14.38 14.38 0 0 1 2.47-8.19 8.39 8.39 0 0 1 7.18-3.38z" fill="#c25581"/><path d="M275.573 44.907q0-9.74-3.36-15.9a20.85 20.85 0 0 0-8.54-8.9 23.13 23.13 0 0 0-10.81-2.71 28.54 28.54 0 0 0-14.44 3.42 21.77 21.77 0 0 0-8.91 9.43 30.45 30.45 0 0 0-3 13.62 31.18 31.18 0 0 0 3 13.8 22.43 22.43 0 0 0 8.91 9.64 27.72 27.72 0 0 0 14.44 3.55 41.42 41.42 0 0 0 12.93-1.7 46.48 46.48 0 0 0 8.64-3.78v-11.31q-9.93 5.17-18.14 5.17a13.32 13.32 0 0 1-13-10.7h32.28zm-23.73-16.3a7.35 7.35 0 0 1 6.29 3 12.51 12.51 0 0 1 2.16 7c-.93-1.88-4.49-3.27-8.75-3.27s-7.8 1.39-8.75 3.26a11.53 11.53 0 0 1 2.47-7 8.12 8.12 0 0 1 6.58-2.99z" fill="#ff8d4e"/><path d="M327.303 26.097a24.84 24.84 0 0 0-10.17-10.76q-6.8-3.91-16.48-3.91a26.39 26.39 0 0 0-12.33 3.1 23.79 23.79 0 0 0-9.78 10.13 27.87 27.87 0 0 0-2.34 5.85 39.58 39.58 0 0 1 2.37 14.4v2.08h33a15.2 15.2 0 0 1-14.88 12.21c-5.87 0-12.32-1.76-19.33-5.23v13a56.12 56.12 0 0 0 8.5 3.57 47.26 47.26 0 0 0 14.81 1.89q9.68 0 16.48-4.05a25.59 25.59 0 0 0 10.17-11 35.58 35.58 0 0 0 3.35-15.74 34.75 34.75 0 0 0-3.37-15.54zm-25.51-1.88a9.27 9.27 0 0 1 7.49 3.44 12.45 12.45 0 0 1 2.67 6.32c-1.79-1.73-5.3-2.91-9.34-2.91-5.34 0-9.74 2.05-10.48 4.72a14.38 14.38 0 0 1 2.47-8.19 8.39 8.39 0 0 1 7.18-3.38z" fill="#c25581"/></svg>