<svg xmlns="http://www.w3.org/2000/svg" width="135" height="90" viewBox="0 0 478.34645 318.89763"><path d="M328.036 230.148L207.143 273.54l81.607 45.18 16.07.713 23.93-88.928" fill="#c3c3c3" stroke="#000"/><path d="M207.143 273.898l.357 4.107 75.536 40.893 6.25.535z" fill="#999"/><path d="M317.857 269.97l-48.75 19.82 38.572 20.715z" fill="#999" stroke="#000"/><g fill="none" stroke="#000"><path d="M207.32 273.183l-.356 4.643 76.072 41.43M269.286 290.148c.714-1.072 49.464-20.715 49.464-20.715M276.43 293.183l40-17.143M284.107 297.112l31.43-14.107M291.25 301.04l21.607-10.178M297.32 304.79l13.75-6.428M304.107 308.005l5.536-3.75M269.82 289.97l37.144 19.82M277.32 286.933l32.144 15.715M285.357 283.362l26.607 12.5M293.393 279.433l20.714 9.822M301.786 276.22l13.75 7.142M310.357 273.72l6.786 3.57M316.07 270.505l2.144 1.785"/></g><path d="M154.82 233.005l-3.57 17.32-.893 13.93 1.25 6.428L155 273.54l5.893 2.5 12.678-.535 22.144-6.25 20.715-9.643 23.034-13.214 11.072-4.286 21.964-.893 11.25-2.322 7.5.893 9.464 5.18 3.215-.894-1.43-4.285-11.607-8.392-7.5-.715 13.214-1.25 5 1.43 9.286 8.035 4.286 2.32 3.39-.713-.713-4.286 3.572-.18 1.25-2.142-2.86-4.465-9.463-7.678-6.07-2.857-5.716 1.25-8.213-1.25-6.428-4.108-19.287 3.393-15.357 3.572-8.93 1.25-18.213 7.678L205 236.22l-16.786.892-4.464 1.07-7.143 3.573zM43.75 118.898l12.5-.18 7.143-1.427 3.393-5.714 3.75-1.964 3.57.18 2.144 1.963 2.143 8.75 1.964 6.07 15.18 11.787 12.5 11.43 5.534 11.606-6.963 2.32-10 6.43-8.214-11.786-12.5-17.68-9.822-7.32-11.963-5.357-7.857-3.393-6.07-.893-.537-3.93 3.214-1.25z" fill="#f4d2a2" stroke="#000"/><path d="M56.964 181.755l-1.07 8.036 1.785 11.786-.537 6.607-26.786-4.82-12.143-1.25-1.25-.894-.357-5.894 4.107-14.643 2.857-31.07 1.25-16.787-4.82-6.964-8.75-8.036-3.75-1.25-3.57-.893-3.93-2.32.893-3.572 2.857-1.07 6.964-.537 10 3.215 5-.357 8.215-1.07 7.677-.358 1.964 2.32-.534 4.287-2.68 3.75-.713 5.356-.536 13.036 2.143 8.57 2.857 8.75 2.143 7.144.18 11.43-.36 9.82 7.68-1.607z" fill="#f4d2a2" stroke="#000"/><path d="M57.143 181.755l3.393-4.107 9.285-5.536 10.894 1.25h3.93l5.713-8.57 12.5.534-5 4.465-6.786 5.358-5 7.857-1.963 6.964.357 11.963 2.857 11.786-30.177-5.18-.893-17.678z" fill="#83a5b4" stroke="#000"/><path d="M87.68 214.255s-1.966-10.893-2.68-11.607c-.714-.715-.893-11.965-.893-11.965l2.5-7.678 4.286-7.68 12.143-9.642 8.393-3.57 7.856-1.43s11.428-1.607 12.143-1.25c.713.358 11.07 6.072 11.07 6.072l10.893.714 21.428-16.072 32.68-21.25 9.286-5.536 5.714.714 6.07 8.393 1.61 14.463 1.07 11.072-.357 16.428 3.57 15.536 3.75 5 11.073-15.358 3.214-5.357 1.607 4.464 2.143 11.07 2.68 5.536 4.463 3.572-11.607 4.82-16.43 8.037-19.285 11.964-11.606 4.642h-9.643l-4.64 8.393-6.25 1.964-6.43 3.035-25.893-10.357 5.536-9.465z" fill="#fff" stroke="#000"/><path d="M55.536 194.612c-.715 0-33.036 2.68-33.036 2.68l-5.18 2.32 1.073 2.143 9.107 1.07 29.286 5-.893-10.177zM88.93 158.005l11.25 3.036 7.856 2.143-4.286 1.43-10.18-.18zM43.57 119.433L55 122.826l9.82 8.93-6.427-2.323-12.5-5.714-4.643-.18-.536-1.964.536-1.607 1.43-.894M167.143 238.898l-4.464 3.214-4.11 6.25-.89 2.5s4.463-4.286 6.784-5.536c2.322-1.25 11.965-3.035 10.893-3.393-1.07-.357-8.214-3.035-8.214-3.035zM284.107 224.433l7.5-2.142 8.75.893 9.107 6.965 7.68 6.07s2.32 0 1.25-.892c-1.073-.893-11.787-9.643-11.787-9.643l-6.607-3.75-9.286-.178-5.535 1.607" fill="#ccaf87"/><path d="M140.893 219.255l9.464-9.286 6.964-8.75.537 3.57-7.32 9.822-6.608 5.357M196.607 167.29l5.893 6.965 3.75 10.714.893 5.178.357 4.82-1.607 10-4.286 11.608-6.607 11.25h3.75s5.18-10.714 5.536-11.428c.357-.715 6.25-17.322 6.25-17.322l-1.607-17.5-4.823-8.035-5.357-5.892" fill="#cbc9ba"/><path d="M339.464 191.22l-33.928 127.678h32.143l84.82-48.036 41.964-109.107z" fill="#e0e0e0" stroke="#000"/><path d="M228.57 133.362l2.5 1.964 3.037 9.643 13.93 16.785 4.106 8.393-1.25 2.32 1.428 3.037-14.463 20-3.393-4.464-3.928-15.535.893-15.18-2.144-16.963z" fill="#ccaf87" stroke="#000"/><path d="M220.714 110.683l4.822-2.143 4.285.715 15.716 19.643 3.75-12.68 12.32-12.678 4.465 6.965 18.573 11.785 8.214-.892 8.572-5.18 2.5 1.43 5-8.75.713-15.715-12.5-21.25-16.25-13.214-18.393-3.572-12.857-1.965-10.893 2.857-9.107 6.25-5.536 8.75L220 77.29l-3.93 10.893 2.86 10.357 1.963 11.43" fill="#3d3d3f" stroke="#000"/><path d="M267.32 85.505l6.43 11.964 10.714-5.894 9.107 5.18 6.966-.358M233.93 82.648l-5.894 5.714-1.43 3.57" fill="none" stroke="#000"/><path d="M283.393 213.54c5.714-.357 17.143-5.535 17.143-5.535l-3.393 11.25 3.214.714 3.93-.715 11.784 6.428 3.216-7.32 4.107-7.322 8.036-6.428-4.466-.714 10.893-19.286 8.572-15.357 2.32-9.286-6.25-4.465h-4.464l-6.43 8.214-6.963 5.713-5 2.143-9.643 10s-4.82 1.072-5.893-.178c-1.07-1.25-5-12.322-5-12.322l-3.57-7.5-6.608-7.32-5.894 8.035-3.215 3.036 2.86 9.107 2.14 6.43-.534 12.678z" fill="#7baca6" stroke="#000"/><path d="M294.82 138.005l1.073 1.607 1.07 7.5 3.216 8.393 6.25 8.036 4.82 5 4.643 1.786h6.607l6.964-5.714 6.786-7.143 3.93-7.858 2.856-6.786.535-7.857-.177-7.144-11.25-10-9.464-6.964-3.394-2.5s-7.5 1.43-8.393 1.786c-.893.357-6.607 7.32-6.607 7.32l-2.857 9.108-6.61 6.786-.177.893-.536 3.214" fill="none" stroke="#000"/><g><path d="M227.32 218.005c.953.19.59.178 1.073.178M249.464 220.862l11.25-1.786" fill="none" stroke="#000"/><path d="M226.25 217.47h20.18c2.677 0 14.106-.894 14.106-.894l2.5-8.75s.178-8.75-.536-8.57c-.714.177-25.536 11.963-25.536 11.963z" fill="#6c8e92" stroke="#000"/><path d="M284.107 213.183c-.178-.892 13.572-5.535 13.572-5.535l11.07-7.322 13.214-9.82 4.465-6.965-3.75 8.215-17.323 12.32-7.32 4.466-10.18 4.286M310.714 220.505l5.893-6.072 7.857-6.25-6.25 9.643-2.32 7.322zM286.25 159.612l6.25 8.036 7.143 6.07 1.964 3.93-10-1.786-7.143 1.07-3.57-10.713 3.392-3.93zM310.714 182.112l6.965-7.68 2.856-2.677 6.607-3.036-6.786 4.285-8.75 9.464" fill="#6c8e92"/><path d="M294.464 138.72l-1.964 7.5-3.75 8.392 2.5 3.036 2.143 5 1.607-1.25-.18 7.32 5-.535v6.608l2.144 3.93-.535-11.787.177-5.714.893-3.215-2.68-4.643-2.856-8.036-1.07-6.25" fill="#b99041" stroke="#000"/></g><g><path d="M234.286 113.183l-5.18-5.714-4.106-.537-3.57 3.572-1.25 5.714.89 7.32 3.75 6.072 3.573 3.036 2.32 1.964 2.68 9.82 7.32 8.93 6.787 7.857 10.357 6.25 6.43 1.963 8.57.18 9.107-6.965 5.18-6.608 2.142-4.285 2.678-5 1.965-7.5.356-5.357 2.678-3.572 4.107-3.928 2.68-7.857-1.964-3.035-7.857 5.357-9.823 1.607-17.857-12.5-5-6.25-11.43 11.606-2.677 5.357-2.143 7.143-6.43-7.857z" fill="#f4d2a2" stroke="#000"/><path d="M294.464 137.648l3.393 11.25 4.107 7.857 6.25 8.393 5.536 4.107s5.536 1.964 6.25 1.785c.714-.178 5-1.07 7.857-3.75 2.857-2.678 9.107-10.357 9.107-10.357l5.715-11.428.534-18.036-22.32-17.858-8.93.178-8.035 9.286-3.216 7.5-5.535 6.25z" fill="#eec9b7" stroke="#000"/><ellipse cx="313.839" cy="137.291" rx="2.054" ry="2.5" fill="#eec9b7"/><path d="M313.447 134.79c-1.21 2.505-.498 2.704-.557 3.835l.892 1.144.976-.274s.998-1.25.64-1.964c-.357-.714-.65-2.415-.65-2.415l-1.45-.22M334.39 135.184c-1.21 2.505-.498 2.703-.557 3.834l.893 1.144.976-.272s.997-1.25.64-1.965c-.357-.714-.65-2.415-.65-2.415l-1.45-.22M274.728 129.817c-1.21 2.505-.498 2.704-.557 3.835l.894 1.144.975-.273s.997-1.25.64-1.964c-.357-.715-.65-2.416-.65-2.416l-1.45-.22" stroke="#000"/><path d="M293.003 130.743c-1.158 1.422-.476 1.535-.533 2.176l.854.648.934-.154s.954-.71.612-1.115c-.34-.406-.62-1.372-.62-1.372l-1.39-.125" stroke="#000" stroke-width=".737"/></g><g><path d="M251.25 242.112l-.18 4.464 2.5 3.93 5.537 2.142L270 249.79l9.643-3.928-.357-5.536-13.75 1.43z" fill="#f4d2a2" stroke="#000"/><path d="M340.536 190.862c3.214-.18 119.82-32.143 119.82-32.143l2.858.356 1.072 2.5s-2.322 1.25-3.393 1.43C459.82 163.182 345 195.682 345 195.682l-3.93-.892z" fill="#c3c3c3" stroke="#000"/><path d="M255.714 152.826l-3.928-3.393-2.68-.535-1.785 1.25.716 4.285 1.607 3.036-2.322 1.785 1.61 4.82 3.213 5.715-1.43 2.68 1.966 3.213 2.5 11.965 3.75 7.678 4.284 4.286-.178 8.036-2.5 11.07 22.5-4.285 1.07-12.857.18-20.714-1.43-6.607-3.035-9.464-1.427.715-8.93-7.5-7.5-5.357-3.57-1.072-1.072.18z" fill="#f4d2a2" stroke="#000"/><path d="M344.107 196.22L311.07 319.254h-4.64l33.39-128.393 1.61 3.57z" fill="#c3c3c3" stroke="#000"/><path d="M303.214 81.398l8.036-3.036 15.893-.18 10.893 6.787 10.357 10 3.57 13.75.716 11.606-1.966 6.25-2.678 5.536 5.357 5.357 1.964 8.57-1.607 7.68.536 6.606 5.178 8.036s1.607 3.214 1.072 2.5c-.536-.714-10.536-8.393-10-7.68.535.716 2.857 6.25 2.857 6.25l-8.036-6.606-3.75-5.536-4.286-.714 5.716-13.393v-15.535l-23.215-18.93-8.213 1.25-6.964 7.68 4.107-8.036L310 93.005l-6.964-10.893" fill="#d1a249" stroke="#000"/><path d="M324.286 84.076l5.535 2.5 14.11 8.215-12.144-.535-3.393 2.857 2.143 4.643-4.465 4.464-3.034.713 1.607-18.928M316.25 82.826l3.036 1.786.357 5.893-5.357 9.82-3.036-9.106s2.857-4.644 2.143-4.822c-.714-.18-6.786-2.68-6.786-2.68l7.322-3.213" fill="#b99041"/><path d="M303.214 159.255l-1.428 2.32v9.287l.357 6.07 1.25 2.86 1.964 2.14s6.786-.356 6.072-1.25c-.716-.89 10.177-10.534 10.177-10.534s-5.357.535-6.786-.18c-1.427-.713-5-2.856-5-2.856z" fill="#dbbaa9" stroke="#000"/><path d="M310.714 112.29s1.607-2.142 2.68-2.142c1.07 0 6.25-.358 6.25-.358s23.75 18.036 21.785 17.5c-1.966-.535-17.144-10.892-17.144-10.892l-5-3.572-6.607-.178M297.68 133.362l4.82 11.07 2.5 15.716-6.07-9.465-2.68-12.678" fill="#dbbaa9"/></g><g><path d="M249.82 159.612l9.287 9.82 4.643 7.323 3.93 3.214-1.787-3.75-10.357-12.322-5.893-5.715M255 154.255l5.893 6.428 10 10.715 5.357 4.285-1.786-3.57-7.678-7.322-7.322-7.857-3.393-3.035" fill="#ccaf87"/><path d="M270.357 156.22l3.572 1.25 6.25.535 4.463-1.607-4.643 3.57-5.357-.178-4.464-2.32-.716-.715" stroke="#000"/><path d="M232.68 114.076l-3.93.357.714 1.43 3.215.178.177 4.465-3.57 1.428-1.073.357v1.965l4.822 3.214 1.07 1.785v-5.536l1.787-3.394-.893-3.214" fill="#ccaf87"/><path d="M276.786 148.898l2.32 2.142 7.144.715 3.57-.536.894-2.5-1.428-5.358-.18-.714M221.43 111.755c-.894-1.607-1.787-13.93-2.68-14.464-.893-.535-2.32-9.464-2.32-9.464l5.534-14.82L230 61.755l9.643-6.43 10.178-1.964 12.5 3.93 4.823 7.14 5 5 .893.537M319.643 78.72l7.5-.537 11.428 6.965 9.644 10.178 3.393 13.036.893 9.643-.357 5-3.75 9.464 3.928 3.75 3.216 9.285-2.143 8.035.178 5.893 4.823 7.5 1.25 3.215-9.643-7.322 3.57 6.786-7.677-6.25-3.93-6.07-4.642-.894 4.466-10" fill="none" stroke="#000"/><path d="M303.57 81.22l8.037-3.037 8.036.893 3.214 3.572-1.25 10-.357 8.928-2.143 7.143" fill="none" stroke="#000"/><path d="M312.5 158.362l3.75 3.036 3.57 1.428 5.537-.535 3.75-2.5 1.25-2.32-3.57 1.963-4.823.893-4.643-.893-4.64-1.785" stroke="#000"/><path d="M317.5 153.005l4.107 1.964s1.786.178 2.5 0c.714-.18 3.214-1.965 3.214-1.965" fill="none" stroke="#000"/></g><g stroke="#000"><path d="M331.25 205.505l3.93-.536-6.966 26.785-4.464-.18-7.32-5.713 6.606-13.93z" fill="#dbbaa9"/><path d="M304.82 249.97l15.537 6.428-34.107 13.928-13.75-7.32z" fill="none"/></g></svg>